<mxfile host="app.diagrams.net" modified="2023-06-01T13:47:53.420Z" agent="Mozilla/5.0 (Windows NT 10.0; Win64; x64; rv:109.0) Gecko/20100101 Firefox/113.0" version="21.3.6" etag="ohZjLonEdEzidEyWMCWt" type="github">
  <diagram name="PÃ¡gina-1" id="ZDHSNKVnY7pOzPgj9cEB">
    <mxGraphModel>
      <root>
        <mxCell id="0" />
        <mxCell id="1" parent="0" />
      </root>
    </mxGraphModel>
  </diagram>
</mxfile>
